<svg xmlns="http://www.w3.org/2000/svg" width="1920" height="1144" viewBox="0 0 1920 1144" version="1.1"><path d="M -0 572.001 C -0 1144.001, 0 1144.001, 960.250 1143.751 C 1920.500 1143.500, 1920.500 1143.500, 1920.751 571.750 C 1921.002 0, 1921.002 0, 960.501 0 C 0 0, 0 0, -0 572.001 M 0.497 572.500 C 0.497 887.100, 0.611 1015.651, 0.750 858.168 C 0.889 700.685, 0.889 443.285, 0.750 286.168 C 0.611 129.051, 0.497 257.900, 0.497 572.500 M 868.500 204.414 C 865.750 205.098, 857.650 207.956, 850.500 210.764 C 832.313 217.908, 804.367 228.664, 778.500 238.475 C 766.400 243.064, 752.450 248.387, 747.500 250.303 C 724.873 259.060, 709.334 265.129, 707.500 265.925 C 706.400 266.402, 701.450 268.244, 696.500 270.019 C 691.550 271.793, 686.150 273.835, 684.500 274.557 C 682.850 275.278, 677.973 277.096, 673.662 278.595 C 669.351 280.095, 664.851 282.122, 663.662 283.100 C 661.634 284.768, 661.595 285.053, 663.031 287.689 C 664.177 289.793, 666.567 291.288, 672.531 293.632 C 676.914 295.355, 681.625 297.246, 683 297.835 C 686.639 299.394, 710.170 308.292, 727.500 314.661 C 735.750 317.694, 743.918 320.810, 745.651 321.587 C 747.384 322.364, 749.244 323, 749.784 323 C 751.719 323, 751.973 328.035, 751.986 366.750 C 751.994 388.337, 752.392 406, 752.870 406 C 753.349 406, 760.661 402.463, 769.120 398.139 C 786.545 389.233, 797.759 384.729, 816.539 379.093 C 832.616 374.268, 844.453 371.742, 859 370.034 C 870.180 368.721, 895.596 368.731, 907.789 370.053 C 922.915 371.693, 939.155 375.942, 957 382.927 C 963.787 385.584, 981.960 394.725, 984 396.508 C 984.825 397.229, 986.400 397.973, 987.500 398.160 C 989.469 398.495, 989.500 397.947, 989.500 363.042 C 989.500 327.584, 989.500 327.584, 984.500 323.745 C 977.502 318.371, 954.020 306.832, 940.227 301.988 C 921.078 295.264, 891.199 288.968, 872.067 287.626 C 867.429 287.301, 863.210 286.610, 862.690 286.090 C 861.258 284.658, 862.770 280.139, 865.643 277.266 C 868.172 274.737, 868.345 274.713, 879.352 275.328 C 890.474 275.951, 901.250 277.564, 914.500 280.591 C 923.856 282.729, 945.754 288.960, 949.500 290.552 C 951.150 291.252, 956.775 293.503, 962 295.554 C 967.225 297.604, 971.725 299.608, 972 300.006 C 972.275 300.405, 974.525 301.748, 977 302.990 C 979.475 304.233, 986.318 308.568, 992.206 312.625 C 998.094 316.681, 1003.815 320, 1004.918 320 C 1006.671 320, 1014.444 317.524, 1020.500 315.036 C 1028.162 311.889, 1033.463 310, 1034.633 310 C 1035.752 310, 1036 314.520, 1036 334.943 C 1036 358.030, 1035.863 359.984, 1034.159 361.193 C 1033.146 361.912, 1031.716 363.625, 1030.981 365 C 1029.097 368.526, 1029.342 379.222, 1031.374 382.123 C 1033.175 384.696, 1033.488 390.153, 1032.087 394.601 C 1030.319 400.218, 1026.762 421.937, 1027.356 423.486 C 1027.871 424.829, 1030.019 425.015, 1042.229 424.778 C 1059.066 424.450, 1057.920 426.943, 1052.667 402.064 C 1049.196 385.627, 1049.196 385.627, 1051.098 382.078 C 1054.967 374.859, 1052.812 363.111, 1047.054 360.029 C 1045.062 358.963, 1045 358.135, 1045 332.615 C 1045 306.300, 1045 306.300, 1051.750 303.536 C 1055.463 302.016, 1059.850 300.208, 1061.500 299.517 C 1063.150 298.827, 1067.875 296.995, 1072 295.446 C 1081.532 291.868, 1083 290.617, 1083 286.064 C 1083 282.902, 1082.585 282.276, 1079.750 281.164 C 1077.963 280.463, 1064.575 275.355, 1050 269.813 C 1035.425 264.271, 1021.250 258.859, 1018.500 257.786 C 1011.487 255.049, 990.006 247.005, 987 245.990 C 983.268 244.730, 973.821 241.114, 950.500 232.017 C 938.950 227.512, 925.450 222.334, 920.500 220.511 C 915.550 218.688, 905.343 214.703, 897.817 211.657 C 886.768 207.184, 873.924 202.643, 873.568 203.085 C 873.531 203.132, 871.250 203.730, 868.500 204.414 M 186.667 229.667 C 185.584 230.750, 185.906 258.852, 187.077 265.440 C 192.497 295.929, 199.145 315.277, 212.600 339.719 C 217.536 348.685, 229.397 366.048, 236.820 375.174 C 244.759 384.935, 264.681 404.197, 274 411.121 C 282.628 417.533, 299.558 429, 300.395 429 C 300.706 429, 303.332 430.499, 306.231 432.330 C 316.873 439.057, 345.328 452.195, 366.500 460.157 C 375.153 463.411, 412.812 476.254, 433 482.835 C 463.359 492.732, 498.400 505.460, 510.500 510.987 C 511.600 511.489, 518.125 514.429, 525 517.519 C 536.380 522.635, 541.165 525.065, 558 534.284 C 570.259 540.997, 589.335 553.817, 599 561.838 C 606.630 568.171, 625.551 587.431, 627.677 591.030 C 628.642 592.664, 629.784 594, 630.216 594 C 630.647 594, 631 594.520, 631 595.156 C 631 595.791, 632.192 597.874, 633.649 599.785 C 637.250 604.506, 646.238 623.025, 648.799 631 C 652.253 641.757, 656.208 657.883, 655.724 659.234 C 655.459 659.971, 654.483 659.119, 653.385 657.193 C 648.737 649.038, 634.963 628.665, 629.534 621.916 C 622.190 612.786, 613.020 603.764, 602.502 595.319 C 594.020 588.510, 577.360 577, 575.985 577 C 575.535 577, 575.017 576.646, 574.833 576.213 C 574.254 574.845, 559.035 566.422, 544 559.148 C 527.600 551.214, 506.528 542.834, 491 538.070 C 485.225 536.298, 479.375 534.483, 478 534.037 C 476.625 533.590, 472.575 532.446, 469 531.493 C 465.425 530.541, 460.475 529.154, 458 528.412 C 455.525 527.670, 443.375 524.542, 431 521.461 C 363.553 504.667, 318.584 489.794, 286 473.503 C 265.120 463.064, 252.296 454.963, 234.636 441.055 C 220.868 430.213, 221.214 430.453, 220.463 431.204 C 219.484 432.182, 223.745 448.043, 228.160 459.860 C 239.316 489.716, 261.433 519.499, 289 541.790 C 294.225 546.015, 298.725 549.733, 299 550.054 C 299.275 550.374, 304.450 553.887, 310.500 557.860 C 320.921 564.705, 348.848 579.231, 357.500 582.307 C 359.700 583.089, 365.204 585.125, 369.731 586.832 C 378.167 590.013, 410.367 599.559, 422 602.328 C 425.575 603.179, 436.375 605.747, 446 608.035 C 466.840 612.988, 480.923 616.773, 498.500 622.145 C 505.650 624.330, 514.650 627.037, 518.500 628.161 C 522.350 629.284, 526.400 630.591, 527.500 631.065 C 528.600 631.539, 533.775 633.559, 539 635.554 C 552.772 640.813, 575.109 652.042, 585.500 658.931 C 607.374 673.432, 624.055 692.816, 631.359 712.221 C 633.932 719.058, 637 730.130, 637 732.581 C 637 734.761, 635.442 734.266, 634.281 731.716 C 629.714 721.695, 606.703 698.194, 591.895 688.431 C 582.202 682.039, 558.739 669.709, 550 666.414 C 519.044 654.743, 486.318 646.631, 451.500 642 C 446.550 641.342, 438.225 640.157, 433 639.367 C 427.775 638.578, 420.575 637.502, 417 636.977 C 388.145 632.739, 363.142 627.927, 347.256 623.555 C 328.849 618.489, 323.678 616.871, 313.356 612.945 C 301.084 608.279, 299.088 608.327, 301.612 613.232 C 303.217 616.351, 313.727 631.953, 314.928 633 C 315.244 633.275, 318.363 636.765, 321.859 640.756 C 333.948 654.553, 355.197 670.611, 376 681.669 C 386.773 687.396, 410.248 696.149, 426.500 700.500 C 434.200 702.561, 443.200 705.036, 446.500 705.998 C 449.800 706.961, 457.900 708.940, 464.500 710.395 C 475.373 712.794, 497.115 717.833, 506 720.015 C 525.277 724.748, 531.743 726.552, 543.682 730.525 C 575.396 741.080, 596.924 754.690, 603.333 768.238 C 607.492 777.031, 606.745 783.945, 600.657 793 C 589.322 809.860, 554.794 836.693, 519 856.459 C 505.744 863.780, 464.362 883, 461.857 883 C 461.418 883, 458.653 884.100, 455.713 885.445 C 452.773 886.790, 447.778 888.859, 444.614 890.043 C 441.451 891.227, 439.039 892.372, 439.255 892.589 C 439.618 892.951, 449.099 892.042, 466.500 889.977 C 478.920 888.502, 494.259 885.813, 506 883.051 C 508.475 882.468, 513.054 881.539, 516.175 880.986 C 533.181 877.972, 586.076 862.821, 611 853.825 C 621.558 850.014, 641.842 842.073, 643.939 840.930 C 644.797 840.462, 648.875 838.670, 653 836.948 C 657.125 835.226, 667.814 830.258, 676.753 825.909 C 685.692 821.559, 693.417 818, 693.920 818 C 694.422 818, 694.983 817.639, 695.167 817.198 C 695.350 816.757, 699.550 814.132, 704.500 811.366 C 709.450 808.599, 715.750 805.076, 718.500 803.536 C 721.250 801.996, 725.639 799.221, 728.252 797.368 C 730.866 795.516, 733.196 794, 733.431 794 C 733.665 794, 739.401 790.103, 746.178 785.340 C 795.970 750.345, 827.443 715.272, 858.877 659.750 C 860.045 657.687, 861.959 654.312, 863.132 652.250 C 865.690 647.750, 883.002 613.164, 885.532 607.500 C 908.385 556.324, 924.247 534.163, 949.973 517.469 C 962.484 509.351, 967.308 506.979, 980.500 502.460 C 997.811 496.531, 1006.901 495.071, 1026.761 495.033 C 1044.081 495, 1058.117 496.523, 1068.446 499.556 C 1071.316 500.399, 1073.763 500.637, 1074.277 500.123 C 1074.790 499.610, 1074.230 497.404, 1072.942 494.869 C 1061.649 472.641, 1033.563 451.648, 1008.226 446.496 C 1005.646 445.972, 1003.446 443.947, 997.851 436.950 C 982.627 417.911, 958.139 403.107, 935.180 399.062 C 910.808 394.768, 874.682 395.563, 852 400.892 C 823.428 407.604, 785.252 425.613, 763 442.877 C 759.975 445.223, 755.105 448.949, 752.178 451.157 C 743.319 457.836, 724.979 476.289, 725.001 478.500 C 725.012 479.600, 728.862 485.225, 733.557 491 C 744.831 504.868, 754.037 518.910, 761.093 533 C 768.321 547.433, 770.332 553.227, 773.759 569.490 C 776.315 581.622, 776.498 584.119, 776.478 606.500 C 776.456 629.802, 776.363 630.907, 773.285 644.500 C 768.890 663.908, 761.643 685.982, 756.537 695.515 C 750.794 706.237, 733.060 731.216, 728.510 734.992 C 726.269 736.851, 726.498 733.532, 728.843 730.154 C 732.659 724.658, 742.619 701.197, 748.012 685 C 764.607 635.159, 763.436 585.365, 744.777 547.500 C 729.814 517.133, 706.886 491.210, 678.500 472.564 C 650.780 454.356, 623.831 442.335, 565.500 422.161 C 538.268 412.743, 509.183 403.063, 500 400.363 C 489.831 397.372, 411.785 371.340, 407.500 369.509 C 405.850 368.804, 402.025 367.303, 399 366.172 C 385.721 361.209, 365.034 352.989, 359.814 350.601 C 356.687 349.171, 353.888 348, 353.594 348 C 350.350 348, 301.929 323.496, 284 312.781 C 249.317 292.054, 211.680 259.785, 193.230 234.957 C 188.859 229.074, 187.973 228.360, 186.667 229.667 M 996 549.455 C 996 550.349, 997.445 551.170, 999.750 551.586 C 1010.164 553.466, 1010.001 552.652, 1009.994 602.718 C 1009.991 628.512, 1009.592 645.930, 1008.951 648.238 C 1007.827 652.286, 1005.488 654.040, 1000 654.952 C 997.835 655.312, 996.500 656.100, 996.500 657.017 C 996.500 658.274, 999.842 658.541, 1018.476 658.770 C 1030.563 658.919, 1041.077 658.801, 1041.839 658.508 C 1044.480 657.495, 1040.991 655, 1036.933 655 C 1034.337 655, 1032.212 654.227, 1030.306 652.589 C 1027.500 650.177, 1027.500 650.177, 1027.193 630.226 C 1026.886 610.275, 1026.886 610.275, 1041.693 609.769 C 1054.898 609.318, 1057.241 608.963, 1063.348 606.486 C 1076.423 601.184, 1083.015 591.528, 1083.005 577.695 C 1082.994 562.691, 1073.747 553.477, 1054.792 549.583 C 1043.936 547.353, 996 547.248, 996 549.455 M 1028.672 555.251 C 1027.129 556.379, 1026.988 558.793, 1027.231 580.001 C 1027.500 603.500, 1027.500 603.500, 1034 603.828 C 1046.878 604.478, 1057.750 600.347, 1061.711 593.300 C 1066.913 584.045, 1066.872 573.020, 1061.608 565.160 C 1057.771 559.432, 1052.466 556.537, 1043.160 555.093 C 1034.045 553.679, 1030.773 553.714, 1028.672 555.251 M 1109 583.098 C 1096.978 585.447, 1088.044 599.473, 1094.475 605.903 C 1096.470 607.898, 1101.582 607.688, 1103.987 605.512 C 1105.596 604.056, 1106 602.433, 1106 597.434 C 1106 591.676, 1106.245 590.972, 1109.077 588.589 C 1115.108 583.514, 1128.100 586.200, 1129.388 592.788 C 1130.407 598.004, 1130.474 608.925, 1129.491 609.793 C 1128.946 610.274, 1123.325 612.844, 1117 615.505 C 1095.285 624.641, 1088.310 631.777, 1089.191 643.958 C 1090.470 661.643, 1108.318 665.179, 1126.569 651.362 C 1129.882 648.854, 1132 649.589, 1132 653.245 C 1132 654.260, 1133.105 656.195, 1134.455 657.545 C 1138.136 661.226, 1145.319 661, 1150.798 657.031 C 1155.328 653.750, 1157.596 650.487, 1156.023 649.514 C 1155.483 649.181, 1154.162 649.378, 1153.086 649.954 C 1149.962 651.626, 1147.157 651.174, 1145.611 648.750 C 1144.492 646.996, 1144.091 640.991, 1143.789 621.500 C 1143.428 598.174, 1143.256 596.221, 1141.224 592.334 C 1136.470 583.245, 1125.032 579.966, 1109 583.098 M 1171.500 586.162 C 1166 588.270, 1160.938 589.996, 1160.250 589.997 C 1159.563 589.999, 1159 590.675, 1159 591.500 C 1159 592.575, 1160.098 593, 1162.878 593 C 1169.499 593, 1169.500 593.005, 1169.500 623.741 C 1169.500 651.176, 1169.500 651.176, 1167.179 653.056 C 1165.902 654.090, 1163.295 655.229, 1161.385 655.588 C 1159.462 655.948, 1158.081 656.743, 1158.290 657.369 C 1158.816 658.948, 1197.179 658.962, 1197.705 657.384 C 1197.929 656.714, 1196.083 656.003, 1193.089 655.606 C 1189.382 655.114, 1187.575 654.275, 1186.051 652.337 C 1184.114 649.876, 1184 648.411, 1184 626.062 C 1184 602.394, 1184 602.394, 1186.996 598.320 C 1188.644 596.079, 1191.330 593.692, 1192.966 593.014 C 1195.685 591.888, 1196.301 592.048, 1200.167 594.891 C 1204.635 598.177, 1206.910 598.654, 1210.066 596.965 C 1211.608 596.140, 1212 594.846, 1212 590.587 C 1212 584.557, 1210.957 583.192, 1205.697 582.338 C 1200.168 581.441, 1195.573 583.593, 1190.001 589.689 C 1187.205 592.748, 1184.711 595.044, 1184.458 594.791 C 1184.205 594.538, 1183.940 591.808, 1183.869 588.723 C 1183.797 585.596, 1183.244 582.941, 1182.620 582.722 C 1182.004 582.507, 1177 584.055, 1171.500 586.162 M 1359.085 583.199 C 1350.633 585.083, 1343.711 591.197, 1342.355 597.976 C 1341.112 604.190, 1346.181 609.022, 1351.730 606.913 C 1355.452 605.497, 1355.967 604.396, 1355.985 597.806 C 1356.006 589.988, 1358.595 586.937, 1365.797 586.245 C 1376.342 585.232, 1381 590.310, 1381 602.818 C 1381 609.716, 1381 609.716, 1369.250 614.510 C 1347.289 623.470, 1338.969 631.025, 1339.022 641.962 C 1339.071 652.004, 1345.176 659.018, 1354.546 659.795 C 1361.206 660.348, 1365.602 658.871, 1373.606 653.391 C 1377.134 650.976, 1380.169 649, 1380.351 649 C 1380.534 649, 1381.218 650.784, 1381.871 652.964 C 1382.524 655.144, 1384.046 657.619, 1385.252 658.464 C 1387.815 660.259, 1395.174 660.492, 1398.316 658.878 C 1402.257 656.853, 1406 652.670, 1406 650.290 C 1406 648.043, 1405.907 648.015, 1403.558 649.554 C 1402.215 650.434, 1400.088 651.007, 1398.833 650.827 C 1394.598 650.220, 1394.031 647.038, 1394.015 623.799 C 1394.007 611.789, 1393.506 599.797, 1392.895 596.944 C 1390.280 584.753, 1376.763 579.257, 1359.085 583.199 M 1433.718 583.035 C 1427.861 584.501, 1424.518 586.576, 1420.555 591.207 C 1417.378 594.918, 1416.947 596.033, 1417.205 599.882 C 1417.434 603.317, 1418.097 604.743, 1420.186 606.297 C 1422.574 608.073, 1423.222 608.151, 1426.020 606.992 C 1429.650 605.488, 1431.205 602.277, 1430.357 598.037 C 1428.889 590.696, 1433.628 586.010, 1442.527 586.004 C 1451.543 585.997, 1455 590.516, 1455 602.308 C 1455 609.714, 1455 609.714, 1445.368 613.955 C 1440.071 616.287, 1434.333 618.676, 1432.618 619.262 C 1428.252 620.754, 1418.181 628.653, 1415.934 632.349 C 1411.819 639.115, 1412.537 647.920, 1417.705 654.061 C 1424.808 662.503, 1436.129 662.032, 1448.770 652.769 C 1451.669 650.645, 1454.423 649.144, 1454.891 649.433 C 1455.359 649.722, 1456.007 651.283, 1456.331 652.903 C 1458.145 661.977, 1469.880 662.594, 1478.750 654.081 C 1479.987 652.894, 1481 651.265, 1481 650.461 C 1481 648.810, 1478.444 648.473, 1477.500 650 C 1476.580 651.488, 1472.352 651.209, 1470.694 649.551 C 1469.529 648.387, 1469.164 643.215, 1468.836 623.249 C 1468.433 598.686, 1468.397 598.331, 1465.737 592.895 C 1461.934 585.123, 1457.361 582.677, 1446.001 582.340 C 1441.325 582.202, 1435.798 582.515, 1433.718 583.035 M 1220.321 584.290 C 1220.052 584.725, 1220.883 585.916, 1222.166 586.938 C 1225.217 589.366, 1226.738 592.443, 1234.061 611 C 1237.426 619.525, 1240.760 627.850, 1241.470 629.500 C 1242.180 631.150, 1245.177 638.570, 1248.130 645.989 C 1251.442 654.308, 1254.092 659.591, 1255.045 659.773 C 1256.171 659.988, 1259.404 654.090, 1266.961 638.034 C 1272.666 625.915, 1277.660 616, 1278.061 616 C 1278.729 616, 1285.787 633.186, 1287.506 639 C 1287.912 640.375, 1288.572 641.950, 1288.973 642.500 C 1289.373 643.050, 1290.951 646.980, 1292.479 651.234 C 1294.006 655.487, 1295.845 659.457, 1296.566 660.055 C 1298.163 661.380, 1299.200 659.531, 1305.062 644.902 C 1307.355 639.181, 1310.079 632.612, 1311.115 630.305 C 1312.152 627.998, 1313 625.818, 1313 625.462 C 1313 624.569, 1324.857 595.203, 1326.713 591.500 C 1327.539 589.850, 1329.132 587.774, 1330.252 586.887 C 1331.372 586, 1332.028 584.854, 1331.710 584.340 C 1330.824 582.906, 1312.747 583.260, 1312.260 584.721 C 1312.039 585.384, 1313.027 586.220, 1314.455 586.578 C 1317.823 587.423, 1319.309 590.309, 1318.437 594.309 C 1317.454 598.816, 1302.962 635.231, 1301.531 636.791 C 1300.274 638.161, 1298.287 633.488, 1288.341 605.770 C 1282.966 590.790, 1283.041 588.667, 1289.010 586.879 C 1297.100 584.455, 1293.577 583.498, 1276.812 583.564 C 1260.308 583.630, 1256.885 584.472, 1263.461 586.850 C 1266.310 587.880, 1267.492 589.251, 1269.894 594.306 C 1274.635 604.284, 1274.719 606.555, 1270.681 615.634 C 1261.020 637.355, 1259.919 639.337, 1258.617 637.358 C 1255.994 633.373, 1241.895 593.732, 1242.191 591.175 C 1242.408 589.292, 1243.455 588.056, 1245.726 587 C 1247.501 586.175, 1248.823 585.079, 1248.664 584.563 C 1248.315 583.430, 1221.015 583.166, 1220.321 584.290 M 1492.999 584 C 1490.566 584.575, 1490.500 584.824, 1490.500 593.462 C 1490.500 599.670, 1490.875 602.458, 1491.750 602.750 C 1492.443 602.981, 1493.010 602.350, 1493.022 601.333 C 1493.066 597.632, 1496.853 591.127, 1499.872 589.566 C 1503.432 587.725, 1529 587.238, 1529 589.011 C 1529 590.003, 1514.251 613.258, 1503.004 630 C 1489.020 650.815, 1485.825 656.103, 1486.373 657.529 C 1486.870 658.826, 1491.122 658.993, 1517.724 658.764 C 1548.500 658.500, 1548.500 658.500, 1549.645 648 C 1550.274 642.225, 1550.585 637.163, 1550.336 636.750 C 1549.267 634.983, 1548 636.286, 1546.934 640.250 C 1543.746 652.100, 1541.537 653.244, 1520.750 653.810 C 1507.727 654.165, 1505 653.997, 1505 652.842 C 1505 651.778, 1538.707 599.644, 1542.720 594.500 C 1545.701 590.678, 1549.040 584.707, 1548.498 584.165 C 1547.682 583.348, 1496.404 583.197, 1492.999 584 M 1120.385 618.041 C 1110.051 623.039, 1104.042 628.806, 1103.894 633.868 C 1103.616 643.405, 1105.044 646.937, 1110.270 649.640 C 1114.689 651.925, 1125.116 649.180, 1128.778 644.768 C 1129.974 643.327, 1131.316 617.987, 1130.332 615.423 C 1129.613 613.548, 1129.750 613.512, 1120.385 618.041 M 1373.622 616.609 C 1361.846 621.672, 1355.412 627.246, 1353.966 633.638 C 1352.479 640.214, 1355.117 646.975, 1360.197 649.602 C 1364.721 651.941, 1372.720 650.073, 1377.506 645.559 C 1381 642.264, 1381 642.264, 1381 628.132 C 1381 620.359, 1380.662 614.018, 1380.250 614.041 C 1379.838 614.064, 1376.855 615.219, 1373.622 616.609 M 1447.510 616.705 C 1434.697 622.108, 1429.114 627.493, 1428.317 635.217 C 1426.972 648.247, 1436.391 654.426, 1448.303 648.329 C 1454.747 645.030, 1455 644.303, 1455 629.059 C 1455 621.391, 1454.660 614.908, 1454.244 614.651 C 1453.828 614.394, 1450.798 615.318, 1447.510 616.705 M 1021.549 720.431 C 1010.313 723.792, 1007.026 726, 1013.262 726 C 1015.477 726, 1017.364 726.745, 1018.595 728.106 C 1020.411 730.112, 1020.500 732.384, 1020.500 776.501 C 1020.500 820.466, 1020.405 822.896, 1018.613 824.876 C 1017.575 826.023, 1015.212 827.245, 1013.363 827.592 C 1005.509 829.065, 1011.190 830, 1028 830 C 1044.958 830, 1050.487 829.064, 1042.444 827.556 C 1040.489 827.189, 1038.014 826.014, 1036.944 824.944 C 1035.120 823.120, 1035 821.423, 1035 797.523 C 1035 772.047, 1035 772.047, 1039.911 768.164 C 1042.613 766.029, 1046.930 763.752, 1049.505 763.103 C 1055.937 761.483, 1060.609 763.733, 1063.750 769.962 C 1065.881 774.188, 1066 775.593, 1066 796.563 C 1066 810.186, 1065.574 819.924, 1064.892 821.881 C 1063.810 824.984, 1059.698 828, 1056.550 828 C 1055.697 828, 1055 828.450, 1055 829 C 1055 829.629, 1061.500 830, 1072.500 830 C 1082.125 830, 1090 829.759, 1090 829.464 C 1090 829.170, 1087.989 828.067, 1085.531 827.013 C 1082.515 825.721, 1080.898 824.351, 1080.557 822.799 C 1080.279 821.535, 1079.894 809.250, 1079.702 795.500 C 1079.340 769.599, 1078.924 766.699, 1074.696 760.633 C 1070.411 754.485, 1059.231 752.294, 1049.658 755.726 C 1046.972 756.689, 1042.859 759.362, 1040.423 761.731 C 1038.007 764.079, 1035.806 766, 1035.533 766 C 1035.259 766, 1034.915 755.125, 1034.768 741.833 C 1034.601 726.785, 1034.123 717.570, 1033.500 717.411 C 1032.950 717.271, 1027.572 718.630, 1021.549 720.431 M 1200.731 717.602 C 1200.400 717.933, 1195.512 719.436, 1189.868 720.941 C 1178.284 724.032, 1175.988 726, 1183.968 726 C 1192.166 726, 1192 724.935, 1192 777.513 C 1192 822.091, 1192 822.091, 1189.612 824.479 C 1188.298 825.793, 1185.593 827.173, 1183.601 827.547 C 1174.982 829.164, 1180.039 830, 1198.441 830 C 1216.883 830, 1223.019 829.058, 1213.986 827.614 C 1211.778 827.261, 1209.078 826.078, 1207.986 824.986 C 1206.055 823.055, 1206 821.542, 1206 770 C 1206 717, 1206 717, 1203.667 717 C 1202.383 717, 1201.063 717.271, 1200.731 717.602 M 872.311 720.532 C 862.479 725.432, 857.439 732.511, 856.347 742.955 C 855.253 753.417, 858.908 762.188, 867.234 769.082 C 869.580 771.025, 877.118 775.927, 883.983 779.976 C 896.647 787.442, 906.110 795.530, 908 800.500 C 908.550 801.947, 909 805.499, 909 808.394 C 909 814.944, 904.836 821.863, 899.223 824.639 C 893.844 827.299, 882.036 827.087, 875.883 824.222 C 869.922 821.445, 862.369 813.099, 858.231 804.717 C 854.807 797.781, 853.403 796.197, 851.957 797.643 C 851.055 798.545, 855.105 829.743, 856.395 831.831 C 857.549 833.697, 858.953 833.196, 860.193 830.476 C 861.790 826.970, 864.502 826.596, 871.679 828.894 C 881.319 831.979, 889.593 833.323, 895.283 832.726 C 920.289 830.103, 933.634 805.887, 920.772 786.470 C 916.361 779.809, 904.484 770.839, 890.407 763.536 C 885.402 760.940, 876.253 753.489, 873.688 749.921 C 868.132 742.191, 869.485 732.382, 876.797 727.387 C 885.650 721.339, 900.885 724.944, 909.440 735.111 C 912.489 738.735, 916.400 746.195, 917.376 750.250 C 917.822 752.102, 918.685 753, 920.019 753 C 922.349 753, 922.317 754.132, 920.491 736.500 C 919.694 728.800, 919.032 721.487, 919.021 720.250 C 919.006 718.674, 918.401 718, 917 718 C 915.900 718, 915 718.418, 915 718.929 C 915 720.687, 911.852 723, 909.459 723 C 908.141 723, 903.615 721.875, 899.403 720.500 C 888.839 717.051, 879.273 717.063, 872.311 720.532 M 966.142 755.939 C 953.941 760.466, 945.612 769.898, 942.499 782.717 C 939.819 793.749, 940.693 804.902, 944.907 813.462 C 951.243 826.333, 959.153 831.494, 972.500 831.467 C 981.968 831.447, 987.579 829.185, 993.942 822.822 C 999.798 816.967, 1005.575 807.172, 1004.058 805.671 C 1003.153 804.775, 1002.626 804.943, 1001.811 806.387 C 999.533 810.428, 993.677 815.978, 989.621 817.942 C 983.011 821.141, 973.666 820.808, 967.926 817.168 C 961.946 813.376, 958.596 809.197, 955.978 802.266 C 954.105 797.309, 953.860 795.027, 954.231 786 C 954.562 777.940, 955.144 774.570, 956.735 771.500 C 960.872 763.516, 965.671 759.864, 973.624 758.647 C 981.774 757.401, 985.225 760.399, 987.435 770.646 C 988.362 774.943, 991.360 777.400, 995.679 777.400 C 1000.544 777.400, 1003.415 773.945, 1002.620 769.047 C 1001.804 764.017, 999.094 760.906, 992.637 757.584 C 985.047 753.678, 974.073 752.997, 966.142 755.939 M 1121.116 755.944 C 1113.235 758.874, 1110.032 761.283, 1104.700 768.290 C 1092.780 783.957, 1095.229 810.229, 1109.804 823.059 C 1117.202 829.571, 1122.147 831.401, 1132.487 831.454 C 1147.144 831.529, 1156.625 826.622, 1163.770 815.266 C 1168.846 807.196, 1170.272 801.167, 1169.827 789.660 C 1169.493 781.021, 1169.013 778.646, 1166.624 773.800 C 1163.269 766.994, 1155.822 759.727, 1149.259 756.853 C 1142.165 753.747, 1128.236 753.297, 1121.116 755.944 M 1247.416 755.412 C 1241.350 757.311, 1237.819 759.701, 1234.750 763.983 C 1229.653 771.094, 1231.700 779, 1238.638 779 C 1244.086 779, 1245.531 776.981, 1245.261 769.742 C 1245.046 763.987, 1245.285 763.081, 1247.591 760.914 C 1249.795 758.844, 1251.143 758.500, 1257.058 758.500 C 1263.225 758.500, 1264.241 758.787, 1266.668 761.213 C 1269.121 763.666, 1269.421 764.771, 1269.803 772.755 C 1270.225 781.585, 1270.225 781.585, 1259.862 785.958 C 1244.682 792.363, 1240.396 794.648, 1235.804 798.785 C 1226.595 807.080, 1225.603 818.133, 1233.319 826.484 C 1237.054 830.526, 1238.087 831.072, 1243 831.599 C 1249.706 832.319, 1257.469 829.713, 1264.412 824.412 C 1268.907 820.979, 1271 820.693, 1271 823.512 C 1271 826.226, 1273.253 829.794, 1275.657 830.890 C 1281.043 833.344, 1287.541 831.767, 1292.750 826.742 C 1297.463 822.196, 1296.912 819.371, 1291.841 822.085 C 1288.347 823.955, 1285.207 822.406, 1284.050 818.242 C 1283.478 816.181, 1283.009 804.670, 1283.006 792.616 C 1283.002 778.823, 1282.568 769.289, 1281.831 766.829 C 1280.397 762.045, 1274.512 756.514, 1269.321 755.072 C 1264.199 753.650, 1252.463 753.832, 1247.416 755.412 M 1313.500 757.099 C 1309.100 758.713, 1303.585 760.740, 1301.244 761.602 C 1296.219 763.453, 1296.557 765, 1301.988 765 C 1309.045 765, 1309 764.806, 1309 795.499 C 1309 822.855, 1309 822.855, 1306.365 824.927 C 1304.916 826.067, 1302.977 827, 1302.056 827 C 1301.136 827, 1299.509 827.661, 1298.441 828.468 C 1296.713 829.775, 1298.726 829.940, 1316.750 829.968 C 1329.605 829.988, 1337 829.635, 1337 829 C 1337 828.450, 1335.942 828, 1334.649 828 C 1333.356 828, 1330.833 827.489, 1329.042 826.865 C 1323.609 824.971, 1323 822.009, 1323 797.482 C 1323 773.550, 1323.188 772.676, 1329.531 767.107 C 1333.562 763.567, 1334.886 763.626, 1340.743 767.600 C 1345.051 770.524, 1347.376 770.624, 1350 768 C 1352.874 765.126, 1352.655 759.564, 1349.545 756.455 C 1344.592 751.501, 1336.032 753.834, 1328.940 762.070 C 1326.605 764.781, 1324.313 767, 1323.847 767 C 1323.381 767, 1323 764.075, 1323 760.500 C 1323 756.925, 1322.662 754.037, 1322.250 754.082 C 1321.838 754.126, 1317.900 755.484, 1313.500 757.099 M 1373 756.081 C 1366.503 759.022, 1363.150 762.677, 1361.388 768.739 C 1359.179 776.335, 1360.720 782.130, 1366.663 788.577 C 1369.249 791.382, 1378.165 798, 1379.359 798 C 1380.878 798, 1392.092 805.500, 1394.893 808.389 C 1397.611 811.194, 1398.189 812.579, 1398.248 816.419 C 1398.305 820.202, 1397.796 821.603, 1395.494 824.006 C 1390.420 829.303, 1382.260 830.255, 1374.838 826.416 C 1371.142 824.505, 1366.531 817.339, 1364.498 810.345 C 1362.947 805.010, 1361.700 803.733, 1360.668 806.423 C 1359.811 808.656, 1360.230 830.024, 1361.142 830.588 C 1361.591 830.865, 1362.839 830.621, 1363.914 830.046 C 1365.327 829.290, 1368.776 829.466, 1376.332 830.682 C 1389.539 832.806, 1395.575 831.768, 1402.006 826.263 C 1411.558 818.086, 1412.577 805.409, 1404.325 797.396 C 1402.382 795.508, 1394.960 790.492, 1387.833 786.249 C 1372.870 777.340, 1370.448 774.586, 1371.258 767.405 C 1372.072 760.178, 1376.677 757.330, 1386.087 758.234 C 1389.490 758.561, 1391.877 759.470, 1393.632 761.106 C 1396.621 763.894, 1401 772.068, 1401 774.860 C 1401 775.919, 1401.690 777.051, 1402.534 777.375 C 1403.863 777.885, 1404.030 776.537, 1403.784 767.232 C 1403.500 756.500, 1403.500 756.500, 1400.748 756.788 C 1399.234 756.947, 1395.665 756.384, 1392.817 755.538 C 1385.709 753.428, 1378.421 753.627, 1373 756.081 M 1127.479 758.886 C 1116.449 761.688, 1111.130 772.821, 1112.373 790.506 C 1114.174 816.122, 1125.540 830.889, 1140.385 826.898 C 1152.585 823.619, 1158.550 805.766, 1154.543 784.522 C 1153.155 777.161, 1152.067 774.368, 1148.506 769.022 C 1146.117 765.435, 1142.847 761.729, 1141.240 760.787 C 1137.676 758.699, 1131.549 757.852, 1127.479 758.886 M 1259.696 789.913 C 1250.925 794.202, 1246.404 797.981, 1244.377 802.718 C 1240.919 810.799, 1244.459 820.226, 1251.791 822.462 C 1254.856 823.397, 1264.346 820.336, 1267.530 817.384 C 1270.030 815.067, 1270.052 814.905, 1269.778 800.854 C 1269.614 792.493, 1269.089 786.548, 1268.500 786.381 C 1267.950 786.225, 1263.988 787.814, 1259.696 789.913" stroke="none" fill="#ffffff" fill-rule="evenodd"/><path d="M 868.500 204.414 C 865.750 205.098, 857.650 207.956, 850.500 210.764 C 832.313 217.908, 804.367 228.664, 778.500 238.475 C 766.400 243.064, 752.450 248.387, 747.500 250.303 C 724.873 259.060, 709.334 265.129, 707.500 265.925 C 706.400 266.402, 701.450 268.244, 696.500 270.019 C 691.550 271.793, 686.150 273.835, 684.500 274.557 C 682.850 275.278, 677.973 277.096, 673.662 278.595 C 669.351 280.095, 664.851 282.122, 663.662 283.100 C 661.634 284.768, 661.595 285.053, 663.031 287.689 C 664.177 289.793, 666.567 291.288, 672.531 293.632 C 676.914 295.355, 681.625 297.246, 683 297.835 C 686.639 299.394, 710.170 308.292, 727.500 314.661 C 735.750 317.694, 743.918 320.810, 745.651 321.587 C 747.384 322.364, 749.244 323, 749.784 323 C 751.719 323, 751.973 328.035, 751.986 366.750 C 751.994 388.337, 752.392 406, 752.870 406 C 753.349 406, 760.661 402.463, 769.120 398.139 C 786.545 389.233, 797.759 384.729, 816.539 379.093 C 832.616 374.268, 844.453 371.742, 859 370.034 C 870.180 368.721, 895.596 368.731, 907.789 370.053 C 922.915 371.693, 939.155 375.942, 957 382.927 C 963.787 385.584, 981.960 394.725, 984 396.508 C 984.825 397.229, 986.400 397.973, 987.500 398.160 C 989.469 398.495, 989.500 397.947, 989.500 363.042 C 989.500 327.584, 989.500 327.584, 984.500 323.745 C 977.502 318.371, 954.020 306.832, 940.227 301.988 C 921.078 295.264, 891.199 288.968, 872.067 287.626 C 867.429 287.301, 863.210 286.610, 862.690 286.090 C 861.258 284.658, 862.770 280.139, 865.643 277.266 C 868.172 274.737, 868.345 274.713, 879.352 275.328 C 890.474 275.951, 901.250 277.564, 914.500 280.591 C 923.856 282.729, 945.754 288.960, 949.500 290.552 C 951.150 291.252, 956.775 293.503, 962 295.554 C 967.225 297.604, 971.725 299.608, 972 300.006 C 972.275 300.405, 974.525 301.748, 977 302.990 C 979.475 304.233, 986.318 308.568, 992.206 312.625 C 998.094 316.681, 1003.815 320, 1004.918 320 C 1006.671 320, 1014.444 317.524, 1020.500 315.036 C 1028.162 311.889, 1033.463 310, 1034.633 310 C 1035.752 310, 1036 314.520, 1036 334.943 C 1036 358.030, 1035.863 359.984, 1034.159 361.193 C 1033.146 361.912, 1031.716 363.625, 1030.981 365 C 1029.097 368.526, 1029.342 379.222, 1031.374 382.123 C 1033.175 384.696, 1033.488 390.153, 1032.087 394.601 C 1030.319 400.218, 1026.762 421.937, 1027.356 423.486 C 1027.871 424.829, 1030.019 425.015, 1042.229 424.778 C 1059.066 424.450, 1057.920 426.943, 1052.667 402.064 C 1049.196 385.627, 1049.196 385.627, 1051.098 382.078 C 1054.967 374.859, 1052.812 363.111, 1047.054 360.029 C 1045.062 358.963, 1045 358.135, 1045 332.615 C 1045 306.300, 1045 306.300, 1051.750 303.536 C 1055.463 302.016, 1059.850 300.208, 1061.500 299.517 C 1063.150 298.827, 1067.875 296.995, 1072 295.446 C 1081.532 291.868, 1083 290.617, 1083 286.064 C 1083 282.902, 1082.585 282.276, 1079.750 281.164 C 1077.963 280.463, 1064.575 275.355, 1050 269.813 C 1035.425 264.271, 1021.250 258.859, 1018.500 257.786 C 1011.487 255.049, 990.006 247.005, 987 245.990 C 983.268 244.730, 973.821 241.114, 950.500 232.017 C 938.950 227.512, 925.450 222.334, 920.500 220.511 C 915.550 218.688, 905.343 214.703, 897.817 211.657 C 886.768 207.184, 873.924 202.643, 873.568 203.085 C 873.531 203.132, 871.250 203.730, 868.500 204.414 M 186.667 229.667 C 185.584 230.750, 185.906 258.852, 187.077 265.440 C 192.497 295.929, 199.145 315.277, 212.600 339.719 C 217.536 348.685, 229.397 366.048, 236.820 375.174 C 244.759 384.935, 264.681 404.197, 274 411.121 C 282.628 417.533, 299.558 429, 300.395 429 C 300.706 429, 303.332 430.499, 306.231 432.330 C 316.873 439.057, 345.328 452.195, 366.500 460.157 C 375.153 463.411, 412.812 476.254, 433 482.835 C 463.359 492.732, 498.400 505.460, 510.500 510.987 C 511.600 511.489, 518.125 514.429, 525 517.519 C 536.380 522.635, 541.165 525.065, 558 534.284 C 570.259 540.997, 589.335 553.817, 599 561.838 C 606.630 568.171, 625.551 587.431, 627.677 591.030 C 628.642 592.664, 629.784 594, 630.216 594 C 630.647 594, 631 594.520, 631 595.156 C 631 595.791, 632.192 597.874, 633.649 599.785 C 637.250 604.506, 646.238 623.025, 648.799 631 C 652.253 641.757, 656.208 657.883, 655.724 659.234 C 655.459 659.971, 654.483 659.119, 653.385 657.193 C 648.737 649.038, 634.963 628.665, 629.534 621.916 C 622.190 612.786, 613.020 603.764, 602.502 595.319 C 594.020 588.510, 577.360 577, 575.985 577 C 575.535 577, 575.017 576.646, 574.833 576.213 C 574.254 574.845, 559.035 566.422, 544 559.148 C 527.600 551.214, 506.528 542.834, 491 538.070 C 485.225 536.298, 479.375 534.483, 478 534.037 C 476.625 533.590, 472.575 532.446, 469 531.493 C 465.425 530.541, 460.475 529.154, 458 528.412 C 455.525 527.670, 443.375 524.542, 431 521.461 C 363.553 504.667, 318.584 489.794, 286 473.503 C 265.120 463.064, 252.296 454.963, 234.636 441.055 C 220.868 430.213, 221.214 430.453, 220.463 431.204 C 219.484 432.182, 223.745 448.043, 228.160 459.860 C 239.316 489.716, 261.433 519.499, 289 541.790 C 294.225 546.015, 298.725 549.733, 299 550.054 C 299.275 550.374, 304.450 553.887, 310.500 557.860 C 320.921 564.705, 348.848 579.231, 357.500 582.307 C 359.700 583.089, 365.204 585.125, 369.731 586.832 C 378.167 590.013, 410.367 599.559, 422 602.328 C 425.575 603.179, 436.375 605.747, 446 608.035 C 466.840 612.988, 480.923 616.773, 498.500 622.145 C 505.650 624.330, 514.650 627.037, 518.500 628.161 C 522.350 629.284, 526.400 630.591, 527.500 631.065 C 528.600 631.539, 533.775 633.559, 539 635.554 C 552.772 640.813, 575.109 652.042, 585.500 658.931 C 607.374 673.432, 624.055 692.816, 631.359 712.221 C 633.932 719.058, 637 730.130, 637 732.581 C 637 734.761, 635.442 734.266, 634.281 731.716 C 629.714 721.695, 606.703 698.194, 591.895 688.431 C 582.202 682.039, 558.739 669.709, 550 666.414 C 519.044 654.743, 486.318 646.631, 451.500 642 C 446.550 641.342, 438.225 640.157, 433 639.367 C 427.775 638.578, 420.575 637.502, 417 636.977 C 388.145 632.739, 363.142 627.927, 347.256 623.555 C 328.849 618.489, 323.678 616.871, 313.356 612.945 C 301.084 608.279, 299.088 608.327, 301.612 613.232 C 303.217 616.351, 313.727 631.953, 314.928 633 C 315.244 633.275, 318.363 636.765, 321.859 640.756 C 333.948 654.553, 355.197 670.611, 376 681.669 C 386.773 687.396, 410.248 696.149, 426.500 700.500 C 434.200 702.561, 443.200 705.036, 446.500 705.998 C 449.800 706.961, 457.900 708.940, 464.500 710.395 C 475.373 712.794, 497.115 717.833, 506 720.015 C 525.277 724.748, 531.743 726.552, 543.682 730.525 C 575.396 741.080, 596.924 754.690, 603.333 768.238 C 607.492 777.031, 606.745 783.945, 600.657 793 C 589.322 809.860, 554.794 836.693, 519 856.459 C 505.744 863.780, 464.362 883, 461.857 883 C 461.418 883, 458.653 884.100, 455.713 885.445 C 452.773 886.790, 447.778 888.859, 444.614 890.043 C 441.451 891.227, 439.039 892.372, 439.255 892.589 C 439.618 892.951, 449.099 892.042, 466.500 889.977 C 478.920 888.502, 494.259 885.813, 506 883.051 C 508.475 882.468, 513.054 881.539, 516.175 880.986 C 533.181 877.972, 586.076 862.821, 611 853.825 C 621.558 850.014, 641.842 842.073, 643.939 840.930 C 644.797 840.462, 648.875 838.670, 653 836.948 C 657.125 835.226, 667.814 830.258, 676.753 825.909 C 685.692 821.559, 693.417 818, 693.920 818 C 694.422 818, 694.983 817.639, 695.167 817.198 C 695.350 816.757, 699.550 814.132, 704.500 811.366 C 709.450 808.599, 715.750 805.076, 718.500 803.536 C 721.250 801.996, 725.639 799.221, 728.252 797.368 C 730.866 795.516, 733.196 794, 733.431 794 C 733.665 794, 739.401 790.103, 746.178 785.340 C 795.970 750.345, 827.443 715.272, 858.877 659.750 C 860.045 657.687, 861.959 654.312, 863.132 652.250 C 865.690 647.750, 883.002 613.164, 885.532 607.500 C 908.385 556.324, 924.247 534.163, 949.973 517.469 C 962.484 509.351, 967.308 506.979, 980.500 502.460 C 997.811 496.531, 1006.901 495.071, 1026.761 495.033 C 1044.081 495, 1058.117 496.523, 1068.446 499.556 C 1071.316 500.399, 1073.763 500.637, 1074.277 500.123 C 1074.790 499.610, 1074.230 497.404, 1072.942 494.869 C 1061.649 472.641, 1033.563 451.648, 1008.226 446.496 C 1005.646 445.972, 1003.446 443.947, 997.851 436.950 C 982.627 417.911, 958.139 403.107, 935.180 399.062 C 910.808 394.768, 874.682 395.563, 852 400.892 C 823.428 407.604, 785.252 425.613, 763 442.877 C 759.975 445.223, 755.105 448.949, 752.178 451.157 C 743.319 457.836, 724.979 476.289, 725.001 478.500 C 725.012 479.600, 728.862 485.225, 733.557 491 C 744.831 504.868, 754.037 518.910, 761.093 533 C 768.321 547.433, 770.332 553.227, 773.759 569.490 C 776.315 581.622, 776.498 584.119, 776.478 606.500 C 776.456 629.802, 776.363 630.907, 773.285 644.500 C 768.890 663.908, 761.643 685.982, 756.537 695.515 C 750.794 706.237, 733.060 731.216, 728.510 734.992 C 726.269 736.851, 726.498 733.532, 728.843 730.154 C 732.659 724.658, 742.619 701.197, 748.012 685 C 764.607 635.159, 763.436 585.365, 744.777 547.500 C 729.814 517.133, 706.886 491.210, 678.500 472.564 C 650.780 454.356, 623.831 442.335, 565.500 422.161 C 538.268 412.743, 509.183 403.063, 500 400.363 C 489.831 397.372, 411.785 371.340, 407.500 369.509 C 405.850 368.804, 402.025 367.303, 399 366.172 C 385.721 361.209, 365.034 352.989, 359.814 350.601 C 356.687 349.171, 353.888 348, 353.594 348 C 350.350 348, 301.929 323.496, 284 312.781 C 249.317 292.054, 211.680 259.785, 193.230 234.957 C 188.859 229.074, 187.973 228.360, 186.667 229.667 M 996 549.455 C 996 550.349, 997.445 551.170, 999.750 551.586 C 1010.164 553.466, 1010.001 552.652, 1009.994 602.718 C 1009.991 628.512, 1009.592 645.930, 1008.951 648.238 C 1007.827 652.286, 1005.488 654.040, 1000 654.952 C 997.835 655.312, 996.500 656.100, 996.500 657.017 C 996.500 658.274, 999.842 658.541, 1018.476 658.770 C 1030.563 658.919, 1041.077 658.801, 1041.839 658.508 C 1044.480 657.495, 1040.991 655, 1036.933 655 C 1034.337 655, 1032.212 654.227, 1030.306 652.589 C 1027.500 650.177, 1027.500 650.177, 1027.193 630.226 C 1026.886 610.275, 1026.886 610.275, 1041.693 609.769 C 1054.898 609.318, 1057.241 608.963, 1063.348 606.486 C 1076.423 601.184, 1083.015 591.528, 1083.005 577.695 C 1082.994 562.691, 1073.747 553.477, 1054.792 549.583 C 1043.936 547.353, 996 547.248, 996 549.455 M 1028.672 555.251 C 1027.129 556.379, 1026.988 558.793, 1027.231 580.001 C 1027.500 603.500, 1027.500 603.500, 1034 603.828 C 1046.878 604.478, 1057.750 600.347, 1061.711 593.300 C 1066.913 584.045, 1066.872 573.020, 1061.608 565.160 C 1057.771 559.432, 1052.466 556.537, 1043.160 555.093 C 1034.045 553.679, 1030.773 553.714, 1028.672 555.251 M 1109 583.098 C 1096.978 585.447, 1088.044 599.473, 1094.475 605.903 C 1096.470 607.898, 1101.582 607.688, 1103.987 605.512 C 1105.596 604.056, 1106 602.433, 1106 597.434 C 1106 591.676, 1106.245 590.972, 1109.077 588.589 C 1115.108 583.514, 1128.100 586.200, 1129.388 592.788 C 1130.407 598.004, 1130.474 608.925, 1129.491 609.793 C 1128.946 610.274, 1123.325 612.844, 1117 615.505 C 1095.285 624.641, 1088.310 631.777, 1089.191 643.958 C 1090.470 661.643, 1108.318 665.179, 1126.569 651.362 C 1129.882 648.854, 1132 649.589, 1132 653.245 C 1132 654.260, 1133.105 656.195, 1134.455 657.545 C 1138.136 661.226, 1145.319 661, 1150.798 657.031 C 1155.328 653.750, 1157.596 650.487, 1156.023 649.514 C 1155.483 649.181, 1154.162 649.378, 1153.086 649.954 C 1149.962 651.626, 1147.157 651.174, 1145.611 648.750 C 1144.492 646.996, 1144.091 640.991, 1143.789 621.500 C 1143.428 598.174, 1143.256 596.221, 1141.224 592.334 C 1136.470 583.245, 1125.032 579.966, 1109 583.098 M 1171.500 586.162 C 1166 588.270, 1160.938 589.996, 1160.250 589.997 C 1159.563 589.999, 1159 590.675, 1159 591.500 C 1159 592.575, 1160.098 593, 1162.878 593 C 1169.499 593, 1169.500 593.005, 1169.500 623.741 C 1169.500 651.176, 1169.500 651.176, 1167.179 653.056 C 1165.902 654.090, 1163.295 655.229, 1161.385 655.588 C 1159.462 655.948, 1158.081 656.743, 1158.290 657.369 C 1158.816 658.948, 1197.179 658.962, 1197.705 657.384 C 1197.929 656.714, 1196.083 656.003, 1193.089 655.606 C 1189.382 655.114, 1187.575 654.275, 1186.051 652.337 C 1184.114 649.876, 1184 648.411, 1184 626.062 C 1184 602.394, 1184 602.394, 1186.996 598.320 C 1188.644 596.079, 1191.330 593.692, 1192.966 593.014 C 1195.685 591.888, 1196.301 592.048, 1200.167 594.891 C 1204.635 598.177, 1206.910 598.654, 1210.066 596.965 C 1211.608 596.140, 1212 594.846, 1212 590.587 C 1212 584.557, 1210.957 583.192, 1205.697 582.338 C 1200.168 581.441, 1195.573 583.593, 1190.001 589.689 C 1187.205 592.748, 1184.711 595.044, 1184.458 594.791 C 1184.205 594.538, 1183.940 591.808, 1183.869 588.723 C 1183.797 585.596, 1183.244 582.941, 1182.620 582.722 C 1182.004 582.507, 1177 584.055, 1171.500 586.162 M 1359.085 583.199 C 1350.633 585.083, 1343.711 591.197, 1342.355 597.976 C 1341.112 604.190, 1346.181 609.022, 1351.730 606.913 C 1355.452 605.497, 1355.967 604.396, 1355.985 597.806 C 1356.006 589.988, 1358.595 586.937, 1365.797 586.245 C 1376.342 585.232, 1381 590.310, 1381 602.818 C 1381 609.716, 1381 609.716, 1369.250 614.510 C 1347.289 623.470, 1338.969 631.025, 1339.022 641.962 C 1339.071 652.004, 1345.176 659.018, 1354.546 659.795 C 1361.206 660.348, 1365.602 658.871, 1373.606 653.391 C 1377.134 650.976, 1380.169 649, 1380.351 649 C 1380.534 649, 1381.218 650.784, 1381.871 652.964 C 1382.524 655.144, 1384.046 657.619, 1385.252 658.464 C 1387.815 660.259, 1395.174 660.492, 1398.316 658.878 C 1402.257 656.853, 1406 652.670, 1406 650.290 C 1406 648.043, 1405.907 648.015, 1403.558 649.554 C 1402.215 650.434, 1400.088 651.007, 1398.833 650.827 C 1394.598 650.220, 1394.031 647.038, 1394.015 623.799 C 1394.007 611.789, 1393.506 599.797, 1392.895 596.944 C 1390.280 584.753, 1376.763 579.257, 1359.085 583.199 M 1433.718 583.035 C 1427.861 584.501, 1424.518 586.576, 1420.555 591.207 C 1417.378 594.918, 1416.947 596.033, 1417.205 599.882 C 1417.434 603.317, 1418.097 604.743, 1420.186 606.297 C 1422.574 608.073, 1423.222 608.151, 1426.020 606.992 C 1429.650 605.488, 1431.205 602.277, 1430.357 598.037 C 1428.889 590.696, 1433.628 586.010, 1442.527 586.004 C 1451.543 585.997, 1455 590.516, 1455 602.308 C 1455 609.714, 1455 609.714, 1445.368 613.955 C 1440.071 616.287, 1434.333 618.676, 1432.618 619.262 C 1428.252 620.754, 1418.181 628.653, 1415.934 632.349 C 1411.819 639.115, 1412.537 647.920, 1417.705 654.061 C 1424.808 662.503, 1436.129 662.032, 1448.770 652.769 C 1451.669 650.645, 1454.423 649.144, 1454.891 649.433 C 1455.359 649.722, 1456.007 651.283, 1456.331 652.903 C 1458.145 661.977, 1469.880 662.594, 1478.750 654.081 C 1479.987 652.894, 1481 651.265, 1481 650.461 C 1481 648.810, 1478.444 648.473, 1477.500 650 C 1476.580 651.488, 1472.352 651.209, 1470.694 649.551 C 1469.529 648.387, 1469.164 643.215, 1468.836 623.249 C 1468.433 598.686, 1468.397 598.331, 1465.737 592.895 C 1461.934 585.123, 1457.361 582.677, 1446.001 582.340 C 1441.325 582.202, 1435.798 582.515, 1433.718 583.035 M 1220.321 584.290 C 1220.052 584.725, 1220.883 585.916, 1222.166 586.938 C 1225.217 589.366, 1226.738 592.443, 1234.061 611 C 1237.426 619.525, 1240.760 627.850, 1241.470 629.500 C 1242.180 631.150, 1245.177 638.570, 1248.130 645.989 C 1251.442 654.308, 1254.092 659.591, 1255.045 659.773 C 1256.171 659.988, 1259.404 654.090, 1266.961 638.034 C 1272.666 625.915, 1277.660 616, 1278.061 616 C 1278.729 616, 1285.787 633.186, 1287.506 639 C 1287.912 640.375, 1288.572 641.950, 1288.973 642.500 C 1289.373 643.050, 1290.951 646.980, 1292.479 651.234 C 1294.006 655.487, 1295.845 659.457, 1296.566 660.055 C 1298.163 661.380, 1299.200 659.531, 1305.062 644.902 C 1307.355 639.181, 1310.079 632.612, 1311.115 630.305 C 1312.152 627.998, 1313 625.818, 1313 625.462 C 1313 624.569, 1324.857 595.203, 1326.713 591.500 C 1327.539 589.850, 1329.132 587.774, 1330.252 586.887 C 1331.372 586, 1332.028 584.854, 1331.710 584.340 C 1330.824 582.906, 1312.747 583.260, 1312.260 584.721 C 1312.039 585.384, 1313.027 586.220, 1314.455 586.578 C 1317.823 587.423, 1319.309 590.309, 1318.437 594.309 C 1317.454 598.816, 1302.962 635.231, 1301.531 636.791 C 1300.274 638.161, 1298.287 633.488, 1288.341 605.770 C 1282.966 590.790, 1283.041 588.667, 1289.010 586.879 C 1297.100 584.455, 1293.577 583.498, 1276.812 583.564 C 1260.308 583.630, 1256.885 584.472, 1263.461 586.850 C 1266.310 587.880, 1267.492 589.251, 1269.894 594.306 C 1274.635 604.284, 1274.719 606.555, 1270.681 615.634 C 1261.020 637.355, 1259.919 639.337, 1258.617 637.358 C 1255.994 633.373, 1241.895 593.732, 1242.191 591.175 C 1242.408 589.292, 1243.455 588.056, 1245.726 587 C 1247.501 586.175, 1248.823 585.079, 1248.664 584.563 C 1248.315 583.430, 1221.015 583.166, 1220.321 584.290 M 1492.999 584 C 1490.566 584.575, 1490.500 584.824, 1490.500 593.462 C 1490.500 599.670, 1490.875 602.458, 1491.750 602.750 C 1492.443 602.981, 1493.010 602.350, 1493.022 601.333 C 1493.066 597.632, 1496.853 591.127, 1499.872 589.566 C 1503.432 587.725, 1529 587.238, 1529 589.011 C 1529 590.003, 1514.251 613.258, 1503.004 630 C 1489.020 650.815, 1485.825 656.103, 1486.373 657.529 C 1486.870 658.826, 1491.122 658.993, 1517.724 658.764 C 1548.500 658.500, 1548.500 658.500, 1549.645 648 C 1550.274 642.225, 1550.585 637.163, 1550.336 636.750 C 1549.267 634.983, 1548 636.286, 1546.934 640.250 C 1543.746 652.100, 1541.537 653.244, 1520.750 653.810 C 1507.727 654.165, 1505 653.997, 1505 652.842 C 1505 651.778, 1538.707 599.644, 1542.720 594.500 C 1545.701 590.678, 1549.040 584.707, 1548.498 584.165 C 1547.682 583.348, 1496.404 583.197, 1492.999 584 M 1120.385 618.041 C 1110.051 623.039, 1104.042 628.806, 1103.894 633.868 C 1103.616 643.405, 1105.044 646.937, 1110.270 649.640 C 1114.689 651.925, 1125.116 649.180, 1128.778 644.768 C 1129.974 643.327, 1131.316 617.987, 1130.332 615.423 C 1129.613 613.548, 1129.750 613.512, 1120.385 618.041 M 1373.622 616.609 C 1361.846 621.672, 1355.412 627.246, 1353.966 633.638 C 1352.479 640.214, 1355.117 646.975, 1360.197 649.602 C 1364.721 651.941, 1372.720 650.073, 1377.506 645.559 C 1381 642.264, 1381 642.264, 1381 628.132 C 1381 620.359, 1380.662 614.018, 1380.250 614.041 C 1379.838 614.064, 1376.855 615.219, 1373.622 616.609 M 1447.510 616.705 C 1434.697 622.108, 1429.114 627.493, 1428.317 635.217 C 1426.972 648.247, 1436.391 654.426, 1448.303 648.329 C 1454.747 645.030, 1455 644.303, 1455 629.059 C 1455 621.391, 1454.660 614.908, 1454.244 614.651 C 1453.828 614.394, 1450.798 615.318, 1447.510 616.705 M 1021.549 720.431 C 1010.313 723.792, 1007.026 726, 1013.262 726 C 1015.477 726, 1017.364 726.745, 1018.595 728.106 C 1020.411 730.112, 1020.500 732.384, 1020.500 776.501 C 1020.500 820.466, 1020.405 822.896, 1018.613 824.876 C 1017.575 826.023, 1015.212 827.245, 1013.363 827.592 C 1005.509 829.065, 1011.190 830, 1028 830 C 1044.958 830, 1050.487 829.064, 1042.444 827.556 C 1040.489 827.189, 1038.014 826.014, 1036.944 824.944 C 1035.120 823.120, 1035 821.423, 1035 797.523 C 1035 772.047, 1035 772.047, 1039.911 768.164 C 1042.613 766.029, 1046.930 763.752, 1049.505 763.103 C 1055.937 761.483, 1060.609 763.733, 1063.750 769.962 C 1065.881 774.188, 1066 775.593, 1066 796.563 C 1066 810.186, 1065.574 819.924, 1064.892 821.881 C 1063.810 824.984, 1059.698 828, 1056.550 828 C 1055.697 828, 1055 828.450, 1055 829 C 1055 829.629, 1061.500 830, 1072.500 830 C 1082.125 830, 1090 829.759, 1090 829.464 C 1090 829.170, 1087.989 828.067, 1085.531 827.013 C 1082.515 825.721, 1080.898 824.351, 1080.557 822.799 C 1080.279 821.535, 1079.894 809.250, 1079.702 795.500 C 1079.340 769.599, 1078.924 766.699, 1074.696 760.633 C 1070.411 754.485, 1059.231 752.294, 1049.658 755.726 C 1046.972 756.689, 1042.859 759.362, 1040.423 761.731 C 1038.007 764.079, 1035.806 766, 1035.533 766 C 1035.259 766, 1034.915 755.125, 1034.768 741.833 C 1034.601 726.785, 1034.123 717.570, 1033.500 717.411 C 1032.950 717.271, 1027.572 718.630, 1021.549 720.431 M 1200.731 717.602 C 1200.400 717.933, 1195.512 719.436, 1189.868 720.941 C 1178.284 724.032, 1175.988 726, 1183.968 726 C 1192.166 726, 1192 724.935, 1192 777.513 C 1192 822.091, 1192 822.091, 1189.612 824.479 C 1188.298 825.793, 1185.593 827.173, 1183.601 827.547 C 1174.982 829.164, 1180.039 830, 1198.441 830 C 1216.883 830, 1223.019 829.058, 1213.986 827.614 C 1211.778 827.261, 1209.078 826.078, 1207.986 824.986 C 1206.055 823.055, 1206 821.542, 1206 770 C 1206 717, 1206 717, 1203.667 717 C 1202.383 717, 1201.063 717.271, 1200.731 717.602 M 872.311 720.532 C 862.479 725.432, 857.439 732.511, 856.347 742.955 C 855.253 753.417, 858.908 762.188, 867.234 769.082 C 869.580 771.025, 877.118 775.927, 883.983 779.976 C 896.647 787.442, 906.110 795.530, 908 800.500 C 908.550 801.947, 909 805.499, 909 808.394 C 909 814.944, 904.836 821.863, 899.223 824.639 C 893.844 827.299, 882.036 827.087, 875.883 824.222 C 869.922 821.445, 862.369 813.099, 858.231 804.717 C 854.807 797.781, 853.403 796.197, 851.957 797.643 C 851.055 798.545, 855.105 829.743, 856.395 831.831 C 857.549 833.697, 858.953 833.196, 860.193 830.476 C 861.790 826.970, 864.502 826.596, 871.679 828.894 C 881.319 831.979, 889.593 833.323, 895.283 832.726 C 920.289 830.103, 933.634 805.887, 920.772 786.470 C 916.361 779.809, 904.484 770.839, 890.407 763.536 C 885.402 760.940, 876.253 753.489, 873.688 749.921 C 868.132 742.191, 869.485 732.382, 876.797 727.387 C 885.650 721.339, 900.885 724.944, 909.440 735.111 C 912.489 738.735, 916.400 746.195, 917.376 750.250 C 917.822 752.102, 918.685 753, 920.019 753 C 922.349 753, 922.317 754.132, 920.491 736.500 C 919.694 728.800, 919.032 721.487, 919.021 720.250 C 919.006 718.674, 918.401 718, 917 718 C 915.900 718, 915 718.418, 915 718.929 C 915 720.687, 911.852 723, 909.459 723 C 908.141 723, 903.615 721.875, 899.403 720.500 C 888.839 717.051, 879.273 717.063, 872.311 720.532 M 966.142 755.939 C 953.941 760.466, 945.612 769.898, 942.499 782.717 C 939.819 793.749, 940.693 804.902, 944.907 813.462 C 951.243 826.333, 959.153 831.494, 972.500 831.467 C 981.968 831.447, 987.579 829.185, 993.942 822.822 C 999.798 816.967, 1005.575 807.172, 1004.058 805.671 C 1003.153 804.775, 1002.626 804.943, 1001.811 806.387 C 999.533 810.428, 993.677 815.978, 989.621 817.942 C 983.011 821.141, 973.666 820.808, 967.926 817.168 C 961.946 813.376, 958.596 809.197, 955.978 802.266 C 954.105 797.309, 953.860 795.027, 954.231 786 C 954.562 777.940, 955.144 774.570, 956.735 771.500 C 960.872 763.516, 965.671 759.864, 973.624 758.647 C 981.774 757.401, 985.225 760.399, 987.435 770.646 C 988.362 774.943, 991.360 777.400, 995.679 777.400 C 1000.544 777.400, 1003.415 773.945, 1002.620 769.047 C 1001.804 764.017, 999.094 760.906, 992.637 757.584 C 985.047 753.678, 974.073 752.997, 966.142 755.939 M 1121.116 755.944 C 1113.235 758.874, 1110.032 761.283, 1104.700 768.290 C 1092.780 783.957, 1095.229 810.229, 1109.804 823.059 C 1117.202 829.571, 1122.147 831.401, 1132.487 831.454 C 1147.144 831.529, 1156.625 826.622, 1163.770 815.266 C 1168.846 807.196, 1170.272 801.167, 1169.827 789.660 C 1169.493 781.021, 1169.013 778.646, 1166.624 773.800 C 1163.269 766.994, 1155.822 759.727, 1149.259 756.853 C 1142.165 753.747, 1128.236 753.297, 1121.116 755.944 M 1247.416 755.412 C 1241.350 757.311, 1237.819 759.701, 1234.750 763.983 C 1229.653 771.094, 1231.700 779, 1238.638 779 C 1244.086 779, 1245.531 776.981, 1245.261 769.742 C 1245.046 763.987, 1245.285 763.081, 1247.591 760.914 C 1249.795 758.844, 1251.143 758.500, 1257.058 758.500 C 1263.225 758.500, 1264.241 758.787, 1266.668 761.213 C 1269.121 763.666, 1269.421 764.771, 1269.803 772.755 C 1270.225 781.585, 1270.225 781.585, 1259.862 785.958 C 1244.682 792.363, 1240.396 794.648, 1235.804 798.785 C 1226.595 807.080, 1225.603 818.133, 1233.319 826.484 C 1237.054 830.526, 1238.087 831.072, 1243 831.599 C 1249.706 832.319, 1257.469 829.713, 1264.412 824.412 C 1268.907 820.979, 1271 820.693, 1271 823.512 C 1271 826.226, 1273.253 829.794, 1275.657 830.890 C 1281.043 833.344, 1287.541 831.767, 1292.750 826.742 C 1297.463 822.196, 1296.912 819.371, 1291.841 822.085 C 1288.347 823.955, 1285.207 822.406, 1284.050 818.242 C 1283.478 816.181, 1283.009 804.670, 1283.006 792.616 C 1283.002 778.823, 1282.568 769.289, 1281.831 766.829 C 1280.397 762.045, 1274.512 756.514, 1269.321 755.072 C 1264.199 753.650, 1252.463 753.832, 1247.416 755.412 M 1313.500 757.099 C 1309.100 758.713, 1303.585 760.740, 1301.244 761.602 C 1296.219 763.453, 1296.557 765, 1301.988 765 C 1309.045 765, 1309 764.806, 1309 795.499 C 1309 822.855, 1309 822.855, 1306.365 824.927 C 1304.916 826.067, 1302.977 827, 1302.056 827 C 1301.136 827, 1299.509 827.661, 1298.441 828.468 C 1296.713 829.775, 1298.726 829.940, 1316.750 829.968 C 1329.605 829.988, 1337 829.635, 1337 829 C 1337 828.450, 1335.942 828, 1334.649 828 C 1333.356 828, 1330.833 827.489, 1329.042 826.865 C 1323.609 824.971, 1323 822.009, 1323 797.482 C 1323 773.550, 1323.188 772.676, 1329.531 767.107 C 1333.562 763.567, 1334.886 763.626, 1340.743 767.600 C 1345.051 770.524, 1347.376 770.624, 1350 768 C 1352.874 765.126, 1352.655 759.564, 1349.545 756.455 C 1344.592 751.501, 1336.032 753.834, 1328.940 762.070 C 1326.605 764.781, 1324.313 767, 1323.847 767 C 1323.381 767, 1323 764.075, 1323 760.500 C 1323 756.925, 1322.662 754.037, 1322.250 754.082 C 1321.838 754.126, 1317.900 755.484, 1313.500 757.099 M 1373 756.081 C 1366.503 759.022, 1363.150 762.677, 1361.388 768.739 C 1359.179 776.335, 1360.720 782.130, 1366.663 788.577 C 1369.249 791.382, 1378.165 798, 1379.359 798 C 1380.878 798, 1392.092 805.500, 1394.893 808.389 C 1397.611 811.194, 1398.189 812.579, 1398.248 816.419 C 1398.305 820.202, 1397.796 821.603, 1395.494 824.006 C 1390.420 829.303, 1382.260 830.255, 1374.838 826.416 C 1371.142 824.505, 1366.531 817.339, 1364.498 810.345 C 1362.947 805.010, 1361.700 803.733, 1360.668 806.423 C 1359.811 808.656, 1360.230 830.024, 1361.142 830.588 C 1361.591 830.865, 1362.839 830.621, 1363.914 830.046 C 1365.327 829.290, 1368.776 829.466, 1376.332 830.682 C 1389.539 832.806, 1395.575 831.768, 1402.006 826.263 C 1411.558 818.086, 1412.577 805.409, 1404.325 797.396 C 1402.382 795.508, 1394.960 790.492, 1387.833 786.249 C 1372.870 777.340, 1370.448 774.586, 1371.258 767.405 C 1372.072 760.178, 1376.677 757.330, 1386.087 758.234 C 1389.490 758.561, 1391.877 759.470, 1393.632 761.106 C 1396.621 763.894, 1401 772.068, 1401 774.860 C 1401 775.919, 1401.690 777.051, 1402.534 777.375 C 1403.863 777.885, 1404.030 776.537, 1403.784 767.232 C 1403.500 756.500, 1403.500 756.500, 1400.748 756.788 C 1399.234 756.947, 1395.665 756.384, 1392.817 755.538 C 1385.709 753.428, 1378.421 753.627, 1373 756.081 M 1127.479 758.886 C 1116.449 761.688, 1111.130 772.821, 1112.373 790.506 C 1114.174 816.122, 1125.540 830.889, 1140.385 826.898 C 1152.585 823.619, 1158.550 805.766, 1154.543 784.522 C 1153.155 777.161, 1152.067 774.368, 1148.506 769.022 C 1146.117 765.435, 1142.847 761.729, 1141.240 760.787 C 1137.676 758.699, 1131.549 757.852, 1127.479 758.886 M 1259.696 789.913 C 1250.925 794.202, 1246.404 797.981, 1244.377 802.718 C 1240.919 810.799, 1244.459 820.226, 1251.791 822.462 C 1254.856 823.397, 1264.346 820.336, 1267.530 817.384 C 1270.030 815.067, 1270.052 814.905, 1269.778 800.854 C 1269.614 792.493, 1269.089 786.548, 1268.500 786.381 C 1267.950 786.225, 1263.988 787.814, 1259.696 789.913" stroke="none" fill="#3a24ba" fill-rule="evenodd"/></svg>